<svg xmlns="http://www.w3.org/2000/svg" xmlns:xlink="http://www.w3.org/1999/xlink" width="1738" zoomAndPan="magnify" viewBox="0 0 1303.5 567.750005" height="757" preserveAspectRatio="xMidYMid meet" version="1.0"><path fill="#ffffff" d="M 145.96875 518.972656 C 143.542969 518.972656 141.328125 517.617188 140.207031 515.476562 L 131.867188 499.496094 L 131.003906 499.496094 L 131.003906 512.480469 C 131.003906 516.078125 128.085938 518.972656 124.515625 518.972656 L 115.496094 518.972656 C 111.898438 518.972656 109.003906 516.050781 109.003906 512.480469 L 109.003906 465.816406 C 109.003906 462.351562 111.714844 459.507812 115.179688 459.328125 C 119.820312 459.089844 126.574219 458.832031 133.585938 458.832031 C 152.226562 458.832031 160.695312 467.304688 160.695312 479.582031 C 160.695312 486.308594 158.402344 490.632812 156.34375 493.136719 C 154.597656 495.273438 154.46875 498.296875 155.925781 500.617188 L 161.191406 508.988281 C 163.902344 513.3125 160.800781 518.945312 155.691406 518.945312 L 145.996094 518.945312 Z M 133.558594 484.246094 C 136.503906 483.960938 138.644531 482.136719 138.644531 479.582031 C 138.644531 477.027344 136.503906 475.226562 133.558594 474.914062 C 132.933594 474.835938 131.472656 474.472656 131.003906 474.914062 C 129.363281 476.558594 129.179688 482.761719 131.003906 484.222656 C 131.5 484.613281 132.910156 484.273438 133.558594 484.222656 Z M 133.558594 484.246094 " fill-opacity="1" fill-rule="nonzero"/><path fill="#ffffff" d="M 192.890625 502.027344 L 211.816406 502.027344 C 215.414062 502.027344 218.308594 504.945312 218.308594 508.515625 L 218.308594 512.480469 C 218.308594 516.078125 215.390625 518.972656 211.816406 518.972656 L 177.382812 518.972656 C 173.785156 518.972656 170.890625 516.050781 170.890625 512.480469 L 170.890625 466.183594 C 170.890625 462.585938 173.808594 459.691406 177.382812 459.691406 L 210.125 459.691406 C 213.71875 459.691406 216.613281 462.609375 216.613281 466.183594 L 216.613281 470.144531 C 216.613281 473.742188 213.695312 476.636719 210.125 476.636719 L 192.890625 476.636719 L 192.890625 480.859375 L 208.429688 480.859375 C 212.027344 480.859375 214.917969 483.777344 214.917969 487.351562 L 214.917969 491.285156 C 214.917969 494.882812 212 497.777344 208.429688 497.777344 L 192.890625 497.777344 Z M 192.890625 502.027344 " fill-opacity="1" fill-rule="nonzero"/><path fill="#ffffff" d="M 248 502.601562 L 248 516.417969 C 248 517.824219 246.855469 518.945312 245.472656 518.945312 L 228.527344 518.945312 C 227.121094 518.945312 226 517.796875 226 516.417969 L 226 462.195312 C 226 460.785156 227.144531 459.664062 228.527344 459.664062 L 249.042969 459.664062 C 249.980469 459.664062 250.816406 460.160156 251.257812 460.996094 L 260.175781 477.261719 C 261.425781 479.554688 264.945312 478.667969 264.945312 476.035156 L 264.945312 462.21875 C 264.945312 460.8125 266.09375 459.691406 267.472656 459.691406 L 284.417969 459.691406 C 285.824219 459.691406 286.945312 460.839844 286.945312 462.21875 L 286.945312 516.441406 C 286.945312 517.851562 285.800781 518.972656 284.417969 518.972656 L 263.902344 518.972656 C 262.964844 518.972656 262.128906 518.476562 261.6875 517.640625 L 252.769531 501.402344 C 251.519531 499.105469 248 499.992188 248 502.625 Z M 248 502.601562 " fill-opacity="1" fill-rule="nonzero"/><path fill="#ffffff" d="M 348 464.042969 L 348 474.734375 C 348 477.15625 346.042969 479.136719 343.59375 479.136719 L 336.292969 479.136719 C 333.871094 479.136719 331.890625 481.09375 331.890625 483.542969 L 331.890625 514.566406 C 331.890625 516.988281 329.933594 518.972656 327.484375 518.972656 L 314.242188 518.972656 C 311.816406 518.972656 309.835938 517.015625 309.835938 514.566406 L 309.835938 483.542969 C 309.835938 481.121094 307.878906 479.136719 305.429688 479.136719 L 298.128906 479.136719 C 295.707031 479.136719 293.726562 477.183594 293.726562 474.734375 L 293.726562 464.042969 C 293.726562 461.621094 295.679688 459.640625 298.128906 459.640625 L 343.566406 459.640625 C 345.992188 459.640625 347.972656 461.59375 347.972656 464.042969 Z M 348 464.042969 " fill-opacity="1" fill-rule="nonzero"/><path fill="#ffffff" d="M 400.34375 518.972656 L 389.789062 518.972656 C 386.683594 518.972656 384.027344 516.78125 383.425781 513.757812 C 383.0625 511.878906 381.394531 510.5 379.464844 510.5 L 375.085938 510.5 C 373.15625 510.5 371.511719 511.855469 371.121094 513.757812 C 370.523438 516.78125 367.835938 518.972656 364.761719 518.972656 L 354.203125 518.972656 C 349.875 518.972656 346.75 514.800781 347.972656 510.65625 L 361.527344 464.355469 C 362.335938 461.59375 364.890625 459.691406 367.757812 459.691406 L 386.839844 459.691406 C 389.710938 459.691406 392.265625 461.59375 393.070312 464.355469 C 395.992188 474.367188 402.925781 498.039062 406.652344 510.707031 C 407.878906 514.878906 404.75 519.023438 400.421875 519.023438 Z M 380.21875 496.941406 C 382.75 493.996094 381.132812 481.691406 377.25 481.691406 C 373.363281 481.691406 371.460938 494.285156 374.277344 496.941406 C 375.34375 497.960938 379.230469 498.0625 380.195312 496.941406 Z M 380.21875 496.941406 " fill-opacity="1" fill-rule="nonzero"/><path fill="#ffffff" d="M 443.488281 499.472656 L 453.367188 499.472656 C 456.964844 499.472656 459.859375 502.390625 459.859375 505.960938 L 459.859375 512.453125 C 459.859375 516.050781 456.941406 518.945312 453.367188 518.945312 L 421.460938 518.945312 C 417.863281 518.945312 414.96875 516.023438 414.96875 512.453125 L 414.96875 466.15625 C 414.96875 462.558594 417.890625 459.664062 421.460938 459.664062 L 430.480469 459.664062 C 434.078125 459.664062 436.972656 462.585938 436.972656 466.15625 L 436.972656 492.980469 C 436.972656 496.578125 439.890625 499.472656 443.460938 499.472656 Z M 443.488281 499.472656 " fill-opacity="1" fill-rule="nonzero"/><path fill="#ffffff" d="M 512.152344 480 L 512.726562 480 C 516.324219 480 519.21875 477.078125 519.21875 473.507812 L 519.21875 466.183594 C 519.21875 462.585938 522.136719 459.691406 525.707031 459.691406 L 534.726562 459.691406 C 538.324219 459.691406 541.21875 462.609375 541.21875 466.183594 L 541.21875 512.480469 C 541.21875 516.078125 538.300781 518.972656 534.726562 518.972656 L 525.707031 518.972656 C 522.109375 518.972656 519.21875 516.050781 519.21875 512.480469 L 519.21875 505.15625 C 519.21875 501.558594 516.296875 498.664062 512.726562 498.664062 L 512.152344 498.664062 C 508.554688 498.664062 505.660156 501.582031 505.660156 505.15625 L 505.660156 512.480469 C 505.660156 516.078125 502.742188 518.972656 499.171875 518.972656 L 490.152344 518.972656 C 486.554688 518.972656 483.660156 516.050781 483.660156 512.480469 L 483.660156 466.183594 C 483.660156 462.585938 486.578125 459.691406 490.152344 459.691406 L 499.171875 459.691406 C 502.769531 459.691406 505.660156 462.609375 505.660156 466.183594 L 505.660156 473.507812 C 505.660156 477.105469 508.582031 480 512.152344 480 Z M 512.152344 480 " fill-opacity="1" fill-rule="nonzero"/><path fill="#ffffff" d="M 602.246094 464.042969 L 602.246094 474.734375 C 602.246094 477.15625 600.289062 479.136719 597.839844 479.136719 L 590.542969 479.136719 C 588.117188 479.136719 586.136719 481.09375 586.136719 483.542969 L 586.136719 514.566406 C 586.136719 516.988281 584.179688 518.972656 581.730469 518.972656 L 568.488281 518.972656 C 566.0625 518.972656 564.082031 517.015625 564.082031 514.566406 L 564.082031 483.542969 C 564.082031 481.121094 562.125 479.136719 559.675781 479.136719 L 552.375 479.136719 C 549.953125 479.136719 547.972656 477.183594 547.972656 474.734375 L 547.972656 464.042969 C 547.972656 461.621094 549.925781 459.640625 552.375 459.640625 L 597.8125 459.640625 C 600.238281 459.640625 602.21875 461.59375 602.21875 464.042969 Z M 602.246094 464.042969 " fill-opacity="1" fill-rule="nonzero"/><path fill="#ffffff" d="M 667.339844 516.234375 L 666.714844 515.660156 C 664.863281 514.019531 662.175781 513.863281 660.171875 515.296875 C 657.066406 517.484375 651.800781 520.222656 644.683594 520.222656 C 631.128906 520.222656 623.519531 512.609375 623.519531 502.859375 C 623.519531 496.863281 627.0625 492.328125 629.957031 489.644531 C 631.753906 487.976562 632.171875 485.316406 630.949219 483.203125 C 629.722656 481.09375 628.601562 478.304688 628.601562 474.890625 C 628.601562 465.582031 636.214844 457.945312 647.65625 457.945312 C 658.242188 457.945312 665.878906 465.582031 665.878906 474.027344 C 665.878906 480.808594 657.824219 487.585938 657.824219 487.585938 L 662.046875 491.390625 L 666.6875 485.757812 C 668.5625 483.492188 671.925781 483.203125 674.167969 485.109375 L 677.582031 488.027344 C 679.773438 489.90625 680.058594 493.164062 678.234375 495.378906 L 676.800781 497.097656 C 674.949219 499.316406 675.265625 502.625 677.480469 504.476562 C 679.722656 506.355469 679.980469 509.714844 678.078125 511.933594 L 674.871094 515.6875 C 672.945312 517.929688 669.554688 518.164062 667.363281 516.179688 Z M 645.9375 505.414062 C 649.742188 505.414062 651.855469 504.476562 651.855469 502.859375 C 651.878906 500.226562 646.433594 496.082031 643.800781 496.082031 C 642.46875 496.082031 641.246094 498.195312 641.246094 500.75 C 641.246094 503.304688 643.355469 505.414062 645.910156 505.414062 Z M 647.632812 480.859375 C 649.222656 480.859375 651.4375 478.304688 651.4375 475.773438 C 651.4375 473.246094 649.742188 471.550781 647.632812 471.550781 C 645.519531 471.550781 643.824219 473.246094 643.824219 475.773438 C 643.824219 478.304688 646.039062 480.859375 647.632812 480.859375 Z M 647.632812 480.859375 " fill-opacity="1" fill-rule="nonzero"/><path fill="#ffffff" d="M 721.195312 518.972656 L 707.953125 518.972656 C 705.53125 518.972656 703.546875 517.015625 703.546875 514.566406 L 703.546875 464.042969 C 703.546875 461.621094 705.503906 459.640625 707.953125 459.640625 L 721.195312 459.640625 C 723.621094 459.640625 725.601562 461.59375 725.601562 464.042969 L 725.601562 514.566406 C 725.601562 516.988281 723.648438 518.972656 721.195312 518.972656 Z M 721.195312 518.972656 " fill-opacity="1" fill-rule="nonzero"/><path fill="#ffffff" d="M 757.796875 501.375 L 757.796875 513.757812 C 757.796875 516.625 755.476562 518.945312 752.609375 518.945312 L 740.984375 518.945312 C 738.113281 518.945312 735.796875 516.625 735.796875 513.757812 L 735.796875 464.851562 C 735.796875 461.984375 738.113281 459.664062 740.984375 459.664062 L 757.273438 459.664062 C 759.179688 459.664062 760.925781 460.707031 761.835938 462.351562 L 770.597656 478.304688 C 771.691406 480.3125 774.765625 479.527344 774.765625 477.234375 L 774.765625 464.851562 C 774.765625 461.984375 777.085938 459.664062 779.953125 459.664062 L 791.582031 459.664062 C 794.449219 459.664062 796.769531 461.984375 796.769531 464.851562 L 796.769531 513.757812 C 796.769531 516.625 794.449219 518.945312 791.582031 518.945312 L 775.289062 518.945312 C 773.386719 518.945312 771.640625 517.902344 770.726562 516.261719 L 761.96875 500.304688 C 760.871094 498.296875 757.796875 499.082031 757.796875 501.375 Z M 757.796875 501.375 " fill-opacity="1" fill-rule="nonzero"/><path fill="#ffffff" d="M 857.796875 464.042969 L 857.796875 474.734375 C 857.796875 477.15625 855.839844 479.136719 853.390625 479.136719 L 846.089844 479.136719 C 843.667969 479.136719 841.683594 481.09375 841.683594 483.542969 L 841.683594 514.566406 C 841.683594 516.988281 839.730469 518.972656 837.28125 518.972656 L 824.035156 518.972656 C 821.613281 518.972656 819.632812 517.015625 819.632812 514.566406 L 819.632812 483.542969 C 819.632812 481.121094 817.675781 479.136719 815.226562 479.136719 L 807.925781 479.136719 C 805.503906 479.136719 803.519531 477.183594 803.519531 474.734375 L 803.519531 464.042969 C 803.519531 461.621094 805.476562 459.640625 807.925781 459.640625 L 853.363281 459.640625 C 855.789062 459.640625 857.769531 461.59375 857.769531 464.042969 Z M 857.796875 464.042969 " fill-opacity="1" fill-rule="nonzero"/><path fill="#ffffff" d="M 886.628906 502.027344 L 907.636719 502.027344 C 910.0625 502.027344 912.042969 503.980469 912.042969 506.433594 L 912.042969 514.589844 C 912.042969 517.015625 910.089844 518.996094 907.636719 518.996094 L 869.003906 518.996094 C 866.582031 518.996094 864.597656 517.042969 864.597656 514.589844 L 864.597656 464.070312 C 864.597656 461.644531 866.554688 459.664062 869.003906 459.664062 L 905.96875 459.664062 C 908.394531 459.664062 910.375 461.621094 910.375 464.070312 L 910.375 472.230469 C 910.375 474.65625 908.421875 476.636719 905.96875 476.636719 L 886.652344 476.636719 L 886.652344 480.859375 L 904.277344 480.859375 C 906.699219 480.859375 908.679688 482.8125 908.679688 485.265625 L 908.679688 493.421875 C 908.679688 495.847656 906.726562 497.828125 904.277344 497.828125 L 886.652344 497.828125 L 886.652344 502.050781 Z M 886.628906 502.027344 " fill-opacity="1" fill-rule="nonzero"/><path fill="#ffffff" d="M 956.28125 518.972656 C 954.09375 518.972656 952.113281 517.746094 951.09375 515.816406 L 942.570312 499.472656 L 941.710938 499.472656 L 941.710938 513.105469 C 941.710938 516.339844 939.078125 518.972656 935.84375 518.972656 L 925.546875 518.972656 C 922.316406 518.972656 919.683594 516.339844 919.683594 513.105469 L 919.683594 465.191406 C 919.683594 462.0625 922.105469 459.507812 925.207031 459.351562 C 929.847656 459.117188 936.914062 458.832031 944.238281 458.832031 C 962.878906 458.832031 971.351562 467.304688 971.351562 479.582031 C 971.351562 486.59375 968.875 491 966.734375 493.476562 C 965.09375 495.378906 965.015625 498.167969 966.371094 500.28125 L 972.496094 510.003906 C 974.949219 513.914062 972.15625 518.972656 967.542969 518.972656 Z M 944.265625 484.246094 C 947.238281 484.246094 949.347656 482.136719 949.347656 479.582031 C 949.347656 477.027344 947.238281 474.914062 944.265625 474.914062 C 944.265625 474.914062 942.179688 474.472656 941.734375 474.914062 C 940.09375 476.558594 939.910156 482.761719 941.734375 484.222656 C 942.230469 484.613281 944.265625 484.222656 944.265625 484.222656 Z M 944.265625 484.246094 " fill-opacity="1" fill-rule="nonzero"/><path fill="#ffffff" d="M 1011.207031 458.386719 C 1020.4375 458.386719 1026.875 461.4375 1030.683594 464.042969 C 1033.261719 465.792969 1033.886719 469.308594 1032.246094 471.945312 L 1028.050781 478.589844 C 1026.433594 481.171875 1023.097656 482.214844 1020.386719 480.859375 C 1017.179688 479.242188 1012.617188 478.042969 1008.316406 480.625 C 1005.292969 482.449219 1003.597656 485.734375 1003.597656 489.277344 C 1003.597656 495.195312 1007.820312 499.445312 1013.761719 499.445312 C 1016.238281 499.445312 1018.558594 498.636719 1020.4375 497.699219 C 1023.121094 496.34375 1026.433594 497.386719 1028.023438 499.941406 L 1032.246094 506.640625 C 1033.914062 509.273438 1033.261719 512.792969 1030.683594 514.539062 C 1026.851562 517.144531 1020.410156 520.195312 1011.207031 520.195312 C 993.429688 520.195312 979.875 506.640625 979.875 489.277344 C 979.875 471.917969 993.429688 458.363281 1011.207031 458.363281 Z M 1011.207031 458.386719 " fill-opacity="1" fill-rule="nonzero"/><path fill="#ffffff" d="M 1071.402344 520.222656 C 1051.929688 520.222656 1038.371094 506.667969 1038.371094 489.304688 C 1038.371094 471.945312 1051.929688 458.386719 1071.402344 458.386719 C 1090.875 458.386719 1104.429688 471.945312 1104.429688 489.304688 C 1104.429688 506.667969 1090.875 520.222656 1071.402344 520.222656 Z M 1071.402344 479.136719 C 1066.316406 479.136719 1062.09375 483.359375 1062.09375 489.304688 C 1062.09375 495.25 1066.316406 499.472656 1071.402344 499.472656 C 1076.484375 499.472656 1080.707031 495.25 1080.707031 489.304688 C 1080.707031 483.359375 1076.484375 479.136719 1071.402344 479.136719 Z M 1071.402344 479.136719 " fill-opacity="1" fill-rule="nonzero"/><path fill="#ffffff" d="M 1143.585938 513.941406 L 1137.015625 492.5625 C 1136.652344 491.417969 1134.980469 491.675781 1134.980469 492.875 L 1134.980469 511.855469 C 1134.980469 515.765625 1131.800781 518.945312 1127.890625 518.945312 L 1120.070312 518.945312 C 1116.160156 518.945312 1112.980469 515.765625 1112.980469 511.855469 L 1112.980469 466.753906 C 1112.980469 462.84375 1116.160156 459.664062 1120.070312 459.664062 L 1139.050781 459.664062 C 1142.175781 459.664062 1144.941406 461.722656 1145.851562 464.722656 L 1153.074219 488.550781 C 1153.359375 489.539062 1154.769531 489.539062 1155.082031 488.550781 L 1162.300781 464.722656 C 1163.214844 461.722656 1165.976562 459.664062 1169.105469 459.664062 L 1188.082031 459.664062 C 1191.992188 459.664062 1195.175781 462.84375 1195.175781 466.753906 L 1195.175781 511.855469 C 1195.175781 515.765625 1191.992188 518.945312 1188.082031 518.945312 L 1180.261719 518.945312 C 1176.351562 518.945312 1173.171875 515.765625 1173.171875 511.855469 L 1173.171875 492.875 C 1173.171875 491.675781 1171.476562 491.417969 1171.140625 492.5625 L 1164.570312 513.941406 C 1163.65625 516.910156 1160.894531 518.945312 1157.792969 518.945312 L 1150.492188 518.945312 C 1147.363281 518.945312 1144.628906 516.910156 1143.714844 513.941406 Z M 1143.585938 513.941406 " fill-opacity="1" fill-rule="nonzero"/><path fill="#ffffff" d="M 1070.382812 78.28125 C 1031.828125 78.28125 996.273438 79.871094 974.871094 81.070312 C 963.191406 81.722656 954.039062 91.996094 954.039062 104.402344 L 954.039062 347.230469 C 954.039062 360.136719 963.894531 370.613281 976.070312 370.613281 L 1032.871094 370.613281 C 1045.019531 370.613281 1054.898438 360.160156 1054.898438 347.230469 L 1054.898438 292.539062 C 1054.898438 284.746094 1061.078125 278.621094 1068.402344 279.140625 C 1074.867188 279.609375 1082.742188 280.027344 1089.804688 280.027344 C 1155.734375 280.027344 1194.523438 238.863281 1194.523438 179.140625 C 1194.523438 119.417969 1155.734375 78.257812 1070.410156 78.257812 Z M 1113.5 178.699219 C 1111.988281 194.859375 1088.1875 184.433594 1077.578125 188.578125 C 1073.722656 192.460938 1063.917969 191.160156 1060.242188 187.847656 C 1052.007812 187.613281 1038.605469 190.039062 1037.878906 179.453125 L 1037.878906 180.261719 C 1035.320312 179.820312 1030.917969 181.539062 1029.796875 178.882812 C 1024.582031 177.605469 1011.339844 182.085938 1010.582031 176.039062 C 1014.050781 171.894531 1024.085938 175.441406 1029.742188 174.320312 C 1030.5 171.320312 1035.269531 173.144531 1037.796875 172.675781 C 1037.796875 167.671875 1037.796875 162.667969 1037.796875 157.636719 L 1035.792969 157.636719 L 1035.792969 158.441406 C 1032.636719 158.9375 1031.726562 158.390625 1031.828125 155.445312 C 1031.488281 152.628906 1032.039062 150.152344 1035.792969 150.832031 L 1035.792969 151.976562 L 1037.824219 151.976562 C 1037.929688 140.898438 1051.640625 142.933594 1060.113281 142.90625 C 1062.355469 142.621094 1063.136719 139.675781 1065.980469 140.117188 C 1071.035156 139.882812 1075.570312 139.699219 1079.273438 142.878906 C 1120.148438 140.429688 1113.371094 146.21875 1113.5 178.699219 Z M 1113.5 178.699219 " fill-opacity="1" fill-rule="nonzero"/><path fill="#ffffff" d="M 836.289062 93.324219 C 897.578125 92.097656 966.8125 121.140625 920.28125 176.195312 C 904.769531 197.910156 883.238281 189.335938 861.367188 184.277344 C 853.050781 182.347656 844.265625 182.007812 835.976562 184.09375 C 804.929688 191.835938 787.957031 226.378906 808.265625 252.210938 C 819.867188 268.480469 847.96875 273.613281 868.875 266.707031 C 930.136719 246.503906 960.714844 325.28125 904.640625 347.074219 C 678.339844 435.003906 587.230469 107.53125 836.261719 93.296875 Z M 836.289062 93.324219 " fill-opacity="1" fill-rule="nonzero"/><path fill="#ffffff" d="M 677.53125 210.527344 C 682.121094 190.820312 678.730469 158.050781 701.226562 147.859375 C 724.769531 127.863281 745.335938 105.941406 777.347656 96.085938 C 779.773438 95.175781 782.222656 92.855469 783.265625 90.664062 C 787.722656 81.253906 792.15625 78.28125 803.519531 78.28125 C 836.339844 78.28125 869.160156 78.257812 901.957031 78.28125 C 918.171875 78.28125 928.519531 92.800781 921.820312 105.992188 C 909.855469 125.726562 877.035156 106.777344 857.195312 109.800781 C 839.964844 109.589844 822.601562 111.335938 805.476562 113.371094 C 792.570312 114.882812 790.121094 115.167969 784.386719 107.949219 C 768.613281 101.351562 731.78125 131.488281 720.726562 144.679688 C 719.527344 146.21875 719.605469 148.300781 720.882812 149.789062 C 724.429688 153.90625 723.542969 158.9375 722.761719 164.203125 C 719.710938 184.929688 715.828125 205.652344 714.652344 226.507812 C 713.429688 248.09375 716.035156 269.703125 722.371094 290.742188 C 723.828125 295.5625 724.246094 300.097656 720.621094 304.167969 L 720.621094 309.589844 C 727.816406 318.867188 773.074219 355.703125 783.5 344.753906 C 787.410156 335.394531 793.144531 332.191406 804.171875 333.988281 C 836.652344 339.75 869.996094 341.574219 902.527344 335.082031 C 914.910156 332.972656 917.570312 333.859375 923.28125 343.765625 C 925.964844 345.746094 924.84375 350.75 925.050781 353.382812 C 921.53125 363.445312 914.964844 371.058594 901.824219 370.25 C 869.761719 369.78125 837.671875 369.859375 805.605469 370.25 C 791.609375 371.867188 789.339844 362.457031 778.9375 358.101562 C 745.777344 348.484375 724.636719 325.75 700.238281 305.234375 C 676.59375 288.679688 676.699219 236.335938 677.53125 210.632812 Z M 677.53125 210.527344 " fill-opacity="1" fill-rule="nonzero"/><path fill="#ffffff" d="M 871.480469 47.757812 C 887.175781 52.996094 900.9375 63.1875 898.566406 79.246094 C 898.382812 80.757812 896.117188 83.3125 894.8125 83.3125 C 864.964844 83.546875 835.089844 83.496094 805.136719 83.496094 L 803.652344 76.144531 C 715.722656 84.433594 743.171875 117.253906 706.625 121.476562 C 682.875 121.476562 702.324219 93.140625 716.609375 93.6875 C 745.050781 87.25 768.484375 70.226562 798.699219 68.792969 C 802.609375 68.296875 805.164062 67.59375 807.039062 64.023438 C 817.15625 43.375 851.878906 48.042969 871.507812 47.757812 Z M 871.480469 47.757812 " fill-opacity="1" fill-rule="nonzero"/><path fill="#ffffff" d="M 830.917969 392.929688 C 813.011719 385.863281 801.410156 377.992188 805.527344 357.894531 C 833.996094 356.640625 862.671875 357.894531 891.1875 357.292969 C 909.644531 356.617188 894.628906 390.660156 875.417969 390.921875 C 872.890625 394.128906 835.039062 392.667969 830.917969 392.929688 Z M 830.917969 392.929688 " fill-opacity="1" fill-rule="nonzero"/><path fill="#ffffff" d="M 488.300781 78.492188 C 343.019531 71.007812 325.191406 275.414062 470.964844 270.929688 C 489.890625 273.25 483.84375 294.050781 462.859375 290.871094 C 442.734375 293.921875 420.625 273.613281 411.867188 288.238281 C 411.867188 288.238281 390.125 334.746094 390.125 334.746094 C 387.988281 339.308594 389.867188 344.652344 394.503906 347.101562 C 626.332031 464.488281 727.949219 93.714844 488.300781 78.515625 Z M 533.894531 181.488281 C 532.382812 197.597656 508.609375 187.222656 498.050781 191.339844 C 494.21875 195.226562 484.417969 193.921875 480.742188 190.613281 C 472.527344 190.378906 459.15625 192.800781 458.425781 182.21875 L 458.425781 183.027344 C 455.898438 182.582031 451.464844 184.277344 450.34375 181.671875 C 445.132812 180.394531 431.914062 184.875 431.183594 178.828125 C 434.652344 174.710938 444.660156 178.230469 450.292969 177.109375 C 451.023438 174.109375 455.820312 175.933594 458.347656 175.464844 C 458.347656 170.460938 458.347656 165.480469 458.347656 160.476562 L 456.339844 160.476562 L 456.339844 161.285156 C 453.210938 161.78125 452.300781 161.234375 452.402344 158.285156 C 452.066406 155.472656 452.613281 153.019531 456.339844 153.699219 L 456.339844 154.847656 L 458.375 154.847656 C 458.476562 143.792969 472.164062 145.824219 480.636719 145.800781 C 482.851562 145.511719 483.660156 142.566406 486.476562 143.011719 C 491.507812 142.777344 496.042969 142.59375 499.746094 145.773438 C 540.542969 143.324219 533.789062 149.109375 533.921875 181.515625 Z M 533.894531 181.488281 " fill-opacity="1" fill-rule="nonzero"/><path fill="#ffffff" d="M 361.398438 238.371094 C 354.59375 238.03125 339.789062 240.976562 339.917969 230.523438 C 339.917969 230.523438 339.917969 91.761719 339.917969 91.761719 C 339.917969 84.332031 333.714844 78.308594 326.050781 78.308594 L 223.523438 78.308594 C 215.832031 78.308594 208.664062 82.140625 204.542969 88.449219 C 204.492188 88.527344 204.464844 88.605469 204.414062 88.683594 C 197.035156 104.351562 102.40625 242.644531 108.691406 257.765625 C 108.691406 257.765625 108.691406 306.226562 108.691406 306.226562 C 108.691406 316.15625 111.976562 324.1875 122.195312 324.1875 L 223.183594 324.1875 C 230.875 324.1875 237.105469 330.234375 237.105469 337.691406 C 237.625 347.910156 233.140625 370.433594 250.191406 370.015625 C 250.191406 370.015625 327.953125 370.015625 327.953125 370.015625 C 352.71875 369.625 328.761719 326.558594 346.828125 324.1875 C 356.734375 324.34375 374.875 326.195312 374.539062 311.804688 C 374.539062 311.804688 374.539062 251.167969 374.539062 251.167969 C 374.539062 244.105469 368.644531 238.394531 361.371094 238.394531 Z M 264.320312 225.726562 C 264.085938 236.230469 254.777344 238.550781 245.472656 237.898438 C 245.472656 237.898438 218.230469 237.898438 214.839844 237.898438 C 214.605469 237.898438 214.371094 237.847656 214.164062 237.769531 C 188.539062 227.785156 233.820312 166.105469 239.058594 158.808594 C 246.644531 147.46875 264.527344 153.410156 264.527344 167.984375 L 264.320312 225.699219 Z M 264.320312 225.726562 " fill-opacity="1" fill-rule="nonzero"/></svg>