<?xml version="1.0" encoding="UTF-8"?>
<svg id="Layer_1" data-name="Layer 1" xmlns="http://www.w3.org/2000/svg" viewBox="0 0 1303.5 567.750005">
  <path d="M55.98,340.19c-.93,0-1.78-.52-2.21-1.34l-3.2-6.13h-.33v4.98c0,1.38-1.12,2.49-2.49,2.49h-3.46c-1.38,0-2.49-1.12-2.49-2.49v-17.9c0-1.33,1.04-2.42,2.37-2.49,1.78-.09,4.37-.19,7.06-.19,7.15,0,10.4,3.25,10.4,7.96,0,2.58-.88,4.24-1.67,5.2-.67,.82-.72,1.98-.16,2.87l2.02,3.21c1.04,1.66-.15,3.82-2.11,3.82h-3.72Zm-4.76-13.32c1.13-.11,1.95-.81,1.95-1.79s-.82-1.67-1.95-1.79c-.24-.03-.8-.17-.98,0-.63,.63-.7,3.01,0,3.57,.19,.15,.73,.02,.98,0Z" style="fill: #002fa1;"/>
  <path d="M73.98,333.69h7.26c1.38,0,2.49,1.12,2.49,2.49v1.52c0,1.38-1.12,2.49-2.49,2.49h-13.21c-1.38,0-2.49-1.12-2.49-2.49v-17.76c0-1.38,1.12-2.49,2.49-2.49h12.56c1.38,0,2.49,1.12,2.49,2.49v1.52c0,1.38-1.12,2.49-2.49,2.49h-6.61v1.62h5.96c1.38,0,2.49,1.12,2.49,2.49v1.51c0,1.38-1.12,2.49-2.49,2.49h-5.96v1.62Z" style="fill: #002fa1;"/>
  <path d="M95.12,333.91v5.3c0,.54-.44,.97-.97,.97h-6.5c-.54,0-.97-.44-.97-.97v-20.8c0-.54,.44-.97,.97-.97h7.87c.36,0,.68,.19,.85,.51l3.42,6.24c.48,.88,1.83,.54,1.83-.47v-5.3c0-.54,.44-.97,.97-.97h6.5c.54,0,.97,.44,.97,.97v20.8c0,.54-.44,.97-.97,.97h-7.87c-.36,0-.68-.19-.85-.51l-3.42-6.23c-.48-.88-1.83-.54-1.83,.47Z" style="fill: #002fa1;"/>
  <path d="M133.48,319.12v4.1c0,.93-.75,1.69-1.69,1.69h-2.8c-.93,0-1.69,.75-1.69,1.69v11.9c0,.93-.75,1.69-1.69,1.69h-5.08c-.93,0-1.69-.75-1.69-1.69v-11.9c0-.93-.75-1.69-1.69-1.69h-2.8c-.93,0-1.69-.75-1.69-1.69v-4.1c0-.93,.75-1.69,1.69-1.69h17.43c.93,0,1.69,.75,1.69,1.69Z" style="fill: #002fa1;"/>
  <path d="M153.56,340.19h-4.05c-1.19,0-2.21-.84-2.44-2h0c-.14-.72-.78-1.25-1.52-1.25h-1.68c-.74,0-1.37,.52-1.52,1.25h0c-.23,1.16-1.26,2-2.44,2h-4.05c-1.66,0-2.86-1.6-2.39-3.19l5.2-17.76c.31-1.06,1.29-1.79,2.39-1.79h7.32c1.1,0,2.08,.73,2.39,1.79,1.12,3.84,3.78,12.92,5.21,17.78,.47,1.6-.73,3.19-2.39,3.19Zm-7.72-8.45c.97-1.13,.35-5.85-1.14-5.85-1.49,0-2.22,4.83-1.14,5.85,.41,.39,1.9,.43,2.27,0Z" style="fill: #002fa1;"/>
  <path d="M170.11,332.71h3.79c1.38,0,2.49,1.12,2.49,2.49v2.49c0,1.38-1.12,2.49-2.49,2.49h-12.24c-1.38,0-2.49-1.12-2.49-2.49v-17.76c0-1.38,1.12-2.49,2.49-2.49h3.46c1.38,0,2.49,1.12,2.49,2.49v10.29c0,1.38,1.12,2.49,2.49,2.49Z" style="fill: #002fa1;"/>
  <path d="M196.45,325.24h.22c1.38,0,2.49-1.12,2.49-2.49v-2.81c0-1.38,1.12-2.49,2.49-2.49h3.46c1.38,0,2.49,1.12,2.49,2.49v17.76c0,1.38-1.12,2.49-2.49,2.49h-3.46c-1.38,0-2.49-1.12-2.49-2.49v-2.81c0-1.38-1.12-2.49-2.49-2.49h-.22c-1.38,0-2.49,1.12-2.49,2.49v2.81c0,1.38-1.12,2.49-2.49,2.49h-3.46c-1.38,0-2.49-1.12-2.49-2.49v-17.76c0-1.38,1.12-2.49,2.49-2.49h3.46c1.38,0,2.49,1.12,2.49,2.49v2.81c0,1.38,1.12,2.49,2.49,2.49Z" style="fill: #002fa1;"/>
  <path d="M231.01,319.12v4.1c0,.93-.75,1.69-1.69,1.69h-2.8c-.93,0-1.69,.75-1.69,1.69v11.9c0,.93-.75,1.69-1.69,1.69h-5.08c-.93,0-1.69-.75-1.69-1.69v-11.9c0-.93-.75-1.69-1.69-1.69h-2.8c-.93,0-1.69-.75-1.69-1.69v-4.1c0-.93,.75-1.69,1.69-1.69h17.43c.93,0,1.69,.75,1.69,1.69Z" style="fill: #002fa1;"/>
  <path d="M255.98,339.14l-.24-.22c-.71-.63-1.74-.69-2.51-.14-1.19,.84-3.21,1.89-5.94,1.89-5.2,0-8.12-2.92-8.12-6.66,0-2.3,1.36-4.04,2.47-5.07,.69-.64,.85-1.66,.38-2.47s-.9-1.88-.9-3.19c0-3.57,2.92-6.5,7.31-6.5,4.06,0,6.99,2.93,6.99,6.17,0,2.6-3.09,5.2-3.09,5.2l1.62,1.46,1.78-2.16c.72-.87,2.01-.98,2.87-.25l1.31,1.12c.84,.72,.95,1.97,.25,2.82l-.55,.66c-.71,.85-.59,2.12,.26,2.83h0c.86,.72,.96,2.01,.23,2.86l-1.23,1.44c-.74,.86-2.04,.95-2.88,.19Zm-8.21-4.15c1.46,0,2.27-.36,2.27-.98,.01-1.01-2.08-2.6-3.09-2.6-.51,0-.98,.81-.98,1.79s.81,1.79,1.79,1.79Zm.65-9.42c.61,0,1.46-.98,1.46-1.95s-.65-1.62-1.46-1.62-1.46,.65-1.46,1.62,.85,1.95,1.46,1.95Z" style="fill: #002fa1;"/>
  <path d="M276.64,340.19h-5.08c-.93,0-1.69-.75-1.69-1.69v-19.38c0-.93,.75-1.69,1.69-1.69h5.08c.93,0,1.69,.75,1.69,1.69v19.38c0,.93-.75,1.69-1.69,1.69Z" style="fill: #002fa1;"/>
  <path d="M290.68,333.44v4.75c0,1.1-.89,1.99-1.99,1.99h-4.46c-1.1,0-1.99-.89-1.99-1.99v-18.76c0-1.1,.89-1.99,1.99-1.99h6.25c.73,0,1.4,.4,1.75,1.03l3.36,6.12c.42,.77,1.6,.47,1.6-.41v-4.75c0-1.1,.89-1.99,1.99-1.99h4.46c1.1,0,1.99,.89,1.99,1.99v18.76c0,1.1-.89,1.99-1.99,1.99h-6.25c-.73,0-1.4-.4-1.75-1.03l-3.36-6.12c-.42-.77-1.6-.47-1.6,.41Z" style="fill: #002fa1;"/>
  <path d="M329.04,319.12v4.1c0,.93-.75,1.69-1.69,1.69h-2.8c-.93,0-1.69,.75-1.69,1.69v11.9c0,.93-.75,1.69-1.69,1.69h-5.08c-.93,0-1.69-.75-1.69-1.69v-11.9c0-.93-.75-1.69-1.69-1.69h-2.8c-.93,0-1.69-.75-1.69-1.69v-4.1c0-.93,.75-1.69,1.69-1.69h17.43c.93,0,1.69,.75,1.69,1.69Z" style="fill: #002fa1;"/>
  <path d="M340.1,333.69h8.06c.93,0,1.69,.75,1.69,1.69v3.13c0,.93-.75,1.69-1.69,1.69h-14.82c-.93,0-1.69-.75-1.69-1.69v-19.38c0-.93,.75-1.69,1.69-1.69h14.18c.93,0,1.69,.75,1.69,1.69v3.13c0,.93-.75,1.69-1.69,1.69h-7.41v1.62h6.76c.93,0,1.69,.75,1.69,1.69v3.13c0,.93-.75,1.69-1.69,1.69h-6.76v1.62Z" style="fill: #002fa1;"/>
  <path d="M366.82,340.19c-.84,0-1.6-.47-1.99-1.21l-3.27-6.27h-.33v5.23c0,1.24-1.01,2.25-2.25,2.25h-3.95c-1.24,0-2.25-1.01-2.25-2.25v-18.38c0-1.2,.93-2.18,2.12-2.24,1.78-.09,4.49-.2,7.3-.2,7.15,0,10.4,3.25,10.4,7.96,0,2.69-.95,4.38-1.77,5.33-.63,.73-.66,1.8-.14,2.61l2.35,3.73c.94,1.5-.13,3.44-1.9,3.44h-4.31Zm-4.61-13.32c1.14,0,1.95-.81,1.95-1.79s-.81-1.79-1.95-1.79c0,0-.8-.17-.97,0-.63,.63-.7,3.01,0,3.57,.19,.15,.97,0,.97,0Z" style="fill: #002fa1;"/>
  <path d="M387.89,316.95c3.54,0,6.01,1.17,7.47,2.17,.99,.67,1.23,2.02,.6,3.03l-1.61,2.55c-.62,.99-1.9,1.39-2.94,.87-1.23-.62-2.98-1.08-4.63-.09-1.16,.7-1.81,1.96-1.81,3.32,0,2.27,1.62,3.9,3.9,3.9,.95,0,1.84-.31,2.56-.67,1.03-.52,2.3-.12,2.91,.86l1.62,2.57c.64,1.01,.39,2.36-.6,3.03-1.47,1-3.94,2.17-7.47,2.17-6.82,0-12.02-5.2-12.02-11.86s5.2-11.86,12.02-11.86Z" style="fill: #002fa1;"/>
  <path d="M410.98,340.67c-7.47,0-12.67-5.2-12.67-11.86s5.2-11.86,12.67-11.86,12.67,5.2,12.67,11.86-5.2,11.86-12.67,11.86Zm0-15.76c-1.95,0-3.57,1.62-3.57,3.9s1.62,3.9,3.57,3.9,3.57-1.62,3.57-3.9-1.62-3.9-3.57-3.9Z" style="fill: #002fa1;"/>
  <path d="M438.67,338.26l-2.52-8.2c-.14-.44-.78-.34-.78,.12v7.28c0,1.5-1.22,2.72-2.72,2.72h-3c-1.5,0-2.72-1.22-2.72-2.72v-17.3c0-1.5,1.22-2.72,2.72-2.72h7.28c1.2,0,2.26,.79,2.61,1.94l2.77,9.14c.11,.38,.65,.38,.77,0l2.77-9.14c.35-1.15,1.41-1.94,2.61-1.94h7.28c1.5,0,2.72,1.22,2.72,2.72v17.3c0,1.5-1.22,2.72-2.72,2.72h-3c-1.5,0-2.72-1.22-2.72-2.72v-7.28c0-.46-.65-.56-.78-.12l-2.52,8.2c-.35,1.14-1.41,1.92-2.6,1.92h-2.8c-1.2,0-2.25-.78-2.6-1.92Z" style="fill: #002fa1;"/>
  <g>
    <path id="P" d="M410.59,171.14c-14.79,0-28.43,.61-36.64,1.07-4.48,.25-7.99,4.19-7.99,8.95v93.15c0,4.95,3.78,8.97,8.45,8.97h21.79c4.66,0,8.45-4.01,8.45-8.97v-20.98c0-2.99,2.37-5.34,5.18-5.14,2.48,.18,5.5,.34,8.21,.34,25.29,0,40.17-15.79,40.17-38.7s-14.88-38.7-47.61-38.7Zm16.54,38.52c-.58,6.2-9.71,2.2-13.78,3.79-1.48,1.49-5.24,.99-6.65-.28-3.16-.09-8.3,.84-8.58-3.22v.31c-.98-.17-2.67,.49-3.1-.53h0c-2-.49-7.08,1.23-7.37-1.09,1.33-1.59,5.18-.23,7.35-.66,.29-1.15,2.12-.45,3.09-.63,0-1.92,0-3.84,0-5.77h-.77v.31c-1.21,.19-1.56-.02-1.52-1.15-.13-1.08,.08-2.03,1.52-1.77v.44h.78c.04-4.25,5.3-3.47,8.55-3.48,.86-.11,1.16-1.24,2.25-1.07,1.94-.09,3.68-.16,5.1,1.06,15.68-.94,13.08,1.28,13.13,13.74Z" style="fill: #002fa1;"/>
    <path id="C" d="M320.79,176.91c23.51-.47,50.07,10.67,32.22,31.79-5.95,8.33-14.21,5.04-22.6,3.1-3.19-.74-6.56-.87-9.74-.07-11.91,2.97-18.42,16.22-10.63,26.13,4.45,6.24,15.23,8.21,23.25,5.56,23.5-7.75,35.23,22.47,13.72,30.83-86.81,33.73-121.76-91.89-26.23-97.35Z" style="fill: #002fa1;"/>
    <g id="C-2" data-name="C">
      <path d="M259.89,221.87c1.76-7.56,.46-20.13,9.09-24.04,9.03-7.67,16.92-16.08,29.2-19.86,.93-.35,1.87-1.24,2.27-2.08,1.71-3.61,3.41-4.75,7.77-4.75,12.59,0,25.18-.01,37.76,0,6.22,0,10.19,5.57,7.62,10.63-4.59,7.57-17.18,.3-24.79,1.46-6.61-.08-13.27,.59-19.84,1.37-4.95,.58-5.89,.69-8.09-2.08-6.05-2.53-20.18,9.03-24.42,14.09-.46,.59-.43,1.39,.06,1.96,1.36,1.58,1.02,3.51,.72,5.53-1.17,7.95-2.66,15.9-3.11,23.9-.47,8.28,.53,16.57,2.96,24.64,.56,1.85,.72,3.59-.67,5.15v2.08c2.76,3.56,20.12,17.69,24.12,13.49,1.5-3.59,3.7-4.82,7.93-4.13,12.46,2.21,25.25,2.91,37.73,.42,4.75-.81,5.77-.47,7.96,3.33,1.03,.76,.6,2.68,.68,3.69-1.35,3.86-3.87,6.78-8.91,6.47-12.3-.18-24.61-.15-36.91,0-5.37,.62-6.24-2.99-10.23-4.66-12.72-3.69-20.83-12.41-30.19-20.28-9.07-6.35-9.03-26.43-8.71-36.29Z" style="fill: #002fa1;"/>
      <path d="M334.29,159.43c6.02,2.01,11.3,5.92,10.39,12.08-.07,.58-.94,1.56-1.44,1.56-11.45,.09-22.91,.07-34.4,.07l-.57-2.82c-33.73,3.18-23.2,15.77-37.22,17.39-9.11,0-1.65-10.87,3.83-10.66,10.91-2.47,19.9-9,31.49-9.55,1.5-.19,2.48-.46,3.2-1.83,3.88-7.92,17.2-6.13,24.73-6.24Z" style="fill: #002fa1;"/>
      <path d="M318.73,291.84c-6.87-2.71-11.32-5.73-9.74-13.44,10.92-.48,21.92,0,32.86-.23,7.08-.26,1.32,12.8-6.05,12.9-.97,1.23-15.49,.67-17.07,.77Z" style="fill: #002fa1;"/>
    </g>
    <path id="_9" data-name="9" d="M187.3,171.22c-55.73-2.87-62.57,75.54-6.65,73.82,7.26,.89,4.94,8.87-3.11,7.65-7.72,1.17-16.2-6.62-19.56-1.01,0,0-8.34,17.84-8.34,17.84-.82,1.75-.1,3.8,1.68,4.74,88.93,45.03,127.91-97.2,35.98-103.03Zm17.49,39.51c-.58,6.18-9.7,2.2-13.75,3.78-1.47,1.49-5.23,.99-6.64-.28-3.15-.09-8.28,.84-8.56-3.22v.31c-.97-.17-2.67,.48-3.1-.52h0c-2-.49-7.07,1.23-7.35-1.09,1.33-1.58,5.17-.23,7.33-.66,.28-1.15,2.12-.45,3.09-.63,0-1.92,0-3.83,0-5.75h-.77v.31c-1.2,.19-1.55-.02-1.51-1.15-.13-1.08,.08-2.02,1.51-1.76v.44h.78c.04-4.24,5.29-3.46,8.54-3.47,.85-.11,1.16-1.24,2.24-1.07,1.93-.09,3.67-.16,5.09,1.06,15.65-.94,13.06,1.28,13.11,13.71Z" style="fill: #002fa1;"/>
    <path id="_4" data-name="4" d="M138.62,232.55c-2.61-.13-8.29,1-8.24-3.01,0,0,0-53.23,0-53.23,0-2.85-2.38-5.16-5.32-5.16h-39.33c-2.95,0-5.7,1.47-7.28,3.89-.02,.03-.03,.06-.05,.09-2.83,6.01-39.13,59.06-36.72,64.86,0,0,0,18.59,0,18.59,0,3.81,1.26,6.89,5.18,6.89h38.74c2.95,0,5.34,2.32,5.34,5.18,.2,3.92-1.52,12.56,5.02,12.4,0,0,29.83,0,29.83,0,9.5-.15,.31-16.67,7.24-17.58,3.8,.06,10.76,.77,10.63-4.75,0,0,0-23.26,0-23.26,0-2.71-2.26-4.9-5.05-4.9Zm-37.24-4.85c-.09,4.03-3.66,4.92-7.23,4.67,0,0-10.45,0-11.75,0-.09,0-.18-.02-.26-.05-9.83-3.83,7.54-27.49,9.55-30.29,2.91-4.35,9.77-2.07,9.77,3.52l-.08,22.14Z" style="fill: #002fa1;"/>
  </g>
</svg>